<svg viewBox="0 0 32 33" fill="none" xmlns="http://www.w3.org/2000/svg">
<path d="M19.8 11.1C19.8 9.00027 18.0998 7.30002 16 7.30002C13.9003 7.30002 12.2 9.00027 12.2 11.1C12.2 13.1998 13.9003 14.9 16 14.9C18.0998 14.9 19.8 13.1998 19.8 11.1ZM22.2 11.1C22.2 14.5253 19.4253 17.3 16 17.3C12.5748 17.3 9.80001 14.5253 9.80001 11.1C9.80001 7.67478 12.5748 4.90002 16 4.90002C19.4253 4.90002 22.2 7.67478 22.2 11.1ZM7.86668 25.0714C7.86668 26.0966 7.74565 25.9667 8.31373 25.9667H23.6863C24.2544 25.9667 24.1333 26.0966 24.1333 25.0714C24.1333 22.548 20.4291 21.0334 16 21.0334C11.5709 21.0334 7.86668 22.548 7.86668 25.0714ZM5.46667 25.0714C5.46667 20.6357 10.3637 18.6333 16 18.6333C21.6363 18.6333 26.5333 20.6357 26.5333 25.0714C26.5333 27.3856 25.6193 28.3667 23.6863 28.3667H8.31373C6.38073 28.3667 5.46667 27.3856 5.46667 25.0714Z" fill="currentColor"/>
</svg>