<svg viewBox="0 0 32 33" fill="none" xmlns="http://www.w3.org/2000/svg">
<path fillRule="evenodd" clipRule="evenodd" d="M4.65792 7.07835C4.54357 7.04515 4.37717 7.03339 3.54529 7.03339H2.66667C2.00393 7.03339 1.46667 6.49613 1.46667 5.83339C1.46667 5.17065 2.00393 4.63339 2.66667 4.63339H3.54529L3.6805 4.63328C4.29699 4.63255 4.83938 4.63191 5.32718 4.77355C6.30073 5.05625 7.10596 5.7435 7.5381 6.66055C7.63186 6.8595 7.70088 7.07276 7.7568 7.30006H24.146L24.181 7.30006C24.7552 7.30005 25.238 7.30004 25.6321 7.32325C26.0389 7.34722 26.4405 7.39931 26.8302 7.54506C28.1584 8.04182 29.1082 9.22578 29.305 10.6301C29.3627 11.0422 29.3264 11.4456 29.2616 11.8478C29.1988 12.2375 29.094 12.7088 28.9694 13.2694L28.9618 13.3036L28.1168 17.1061L28.0837 17.2556C27.8965 18.1002 27.7528 18.7488 27.4613 19.2966C26.8773 20.3939 25.8683 21.2032 24.6705 21.5353C24.0724 21.7011 23.4082 21.7007 22.5431 21.7001L22.3899 21.7001H12.6496L12.4865 21.7001C11.5719 21.7007 10.8707 21.7012 10.2475 21.5202C8.99838 21.1575 7.96526 20.2758 7.41081 19.0992C7.13416 18.5121 7.02445 17.8196 6.88135 16.9162L6.8558 16.7551L5.58629 8.77535C5.45559 7.9538 5.41784 7.79132 5.36708 7.68361C5.22847 7.38947 4.97019 7.16903 4.65792 7.07835ZM8.16358 9.70006L9.22599 16.3781C9.40735 17.518 9.47043 17.8397 9.58183 18.0761C9.84275 18.6298 10.3289 19.0447 10.9167 19.2154C11.1677 19.2883 11.4953 19.3001 12.6496 19.3001H22.3899C23.4799 19.3001 23.7882 19.2894 24.0293 19.2225C24.593 19.0663 25.0678 18.6854 25.3427 18.169C25.4602 17.9481 25.5375 17.6495 25.774 16.5854L26.619 12.783C26.7531 12.1793 26.8419 11.7774 26.8922 11.4659C26.9416 11.1591 26.9374 11.0288 26.9282 10.9632C26.8535 10.4305 26.4933 9.98142 25.9895 9.79299C25.9274 9.76977 25.8011 9.73738 25.4909 9.7191C25.176 9.70055 24.7644 9.70006 24.146 9.70006H8.16358ZM9.33333 26.1667C9.33333 24.8781 10.378 23.8334 11.6667 23.8334C12.9553 23.8334 14 24.8781 14 26.1667C14 27.4554 12.9553 28.5001 11.6667 28.5001C10.378 28.5001 9.33333 27.4554 9.33333 26.1667ZM23 23.8334C21.7113 23.8334 20.6667 24.8781 20.6667 26.1667C20.6667 27.4554 21.7113 28.5001 23 28.5001C24.2887 28.5001 25.3333 27.4554 25.3333 26.1667C25.3333 24.8781 24.2887 23.8334 23 23.8334Z" fill="currentColor"/>
</svg>