<svg viewBox="0 0 32 32" fill="none" xmlns="http://www.w3.org/2000/svg">
    <path d="M12.8116 22.3052V27.3335H9.37028C7.89752 27.3335 6.70361 26.1396 6.70361 24.6668V17.3012C6.70361 15.4851 7.61122 13.7892 9.12226 12.7819L14.0465 9.49899C15.3544 8.62703 17.0592 8.63045 18.3636 9.50765L23.2296 12.78C24.7302 13.7891 25.6301 15.4788 25.6301 17.2872V24.6668C25.6301 26.1396 24.4362 27.3335 22.9634 27.3335H19.5154V22.306C19.5154 20.4548 18.0147 18.9541 16.1635 18.9541C14.3123 18.9541 12.8116 20.454 12.8116 22.3052Z" stroke="currentColor" strokeWidth="2" strokeLinecap="square"/>
    <path d="M5 11.5817L12.2439 6.66339C14.6119 5.05558 17.7213 5.05558 20.0894 6.66339L27.3333 11.5817" stroke="currentColor" strokeWidth="2" strokeLinecap="round"/>
</svg>