<svg width="66" height="33" viewBox="0 0 66 33" fill="none" xmlns="http://www.w3.org/2000/svg">
<path d="M11.0963 24.3938C9.9275 24.3938 8.92375 24.1944 8.085 23.7956C7.24625 23.3831 6.6 22.7575 6.14625 21.9187C5.6925 21.0662 5.43813 20.0006 5.38313 18.7219C5.36938 18.1169 5.3625 17.5394 5.3625 16.9894C5.3625 16.4256 5.36938 15.8412 5.38313 15.2362C5.43813 13.9712 5.69938 12.9194 6.16688 12.0806C6.64813 11.2281 7.30813 10.5956 8.14688 10.1831C8.99938 9.75687 9.9825 9.54375 11.0963 9.54375C12.2238 9.54375 13.2069 9.75687 14.0456 10.1831C14.8981 10.5956 15.565 11.2281 16.0463 12.0806C16.5275 12.9194 16.7888 13.9712 16.83 15.2362C16.8575 15.8412 16.8713 16.4256 16.8713 16.9894C16.8713 17.5394 16.8575 18.1169 16.83 18.7219C16.7888 20.0006 16.5344 21.0662 16.0669 21.9187C15.6131 22.7575 14.9669 23.3831 14.1281 23.7956C13.2894 24.1944 12.2788 24.3938 11.0963 24.3938ZM11.0963 22.6406C12.155 22.6406 13.0144 22.3244 13.6744 21.6919C14.3481 21.0594 14.7125 20.035 14.7675 18.6187C14.795 18 14.8088 17.45 14.8088 16.9687C14.8088 16.4737 14.795 15.9237 14.7675 15.3187C14.74 14.37 14.5613 13.6 14.2313 13.0087C13.915 12.4175 13.4888 11.9844 12.9525 11.7094C12.4163 11.4344 11.7975 11.2969 11.0963 11.2969C10.4225 11.2969 9.8175 11.4344 9.28125 11.7094C8.745 11.9844 8.31188 12.4175 7.98188 13.0087C7.66563 13.6 7.48688 14.37 7.44563 15.3187C7.43188 15.9237 7.425 16.4737 7.425 16.9687C7.425 17.45 7.43188 18 7.44563 18.6187C7.50063 20.035 7.865 21.0594 8.53875 21.6919C9.2125 22.3244 10.065 22.6406 11.0963 22.6406ZM20.3519 24.1875C20.2006 24.1875 20.0838 24.1462 20.0013 24.0637C19.9188 23.9675 19.8775 23.8506 19.8775 23.7131V10.245C19.8775 10.0937 19.9188 9.97687 20.0013 9.89437C20.0838 9.79812 20.2006 9.75 20.3519 9.75H21.3006C21.4656 9.75 21.5894 9.79125 21.6719 9.87375C21.7544 9.9425 21.8025 9.9975 21.8163 10.0387L28.6638 20.5575V10.245C28.6638 10.0937 28.705 9.97687 28.7875 9.89437C28.87 9.79812 28.9869 9.75 29.1381 9.75H30.1281C30.2794 9.75 30.3963 9.79812 30.4788 9.89437C30.575 9.97687 30.6231 10.0937 30.6231 10.245V23.6925C30.6231 23.83 30.575 23.9469 30.4788 24.0431C30.3963 24.1394 30.2863 24.1875 30.1488 24.1875H29.1588C29.0075 24.1875 28.8906 24.1462 28.8081 24.0637C28.7394 23.9812 28.6913 23.9262 28.6638 23.8987L21.8369 13.4831V23.7131C21.8369 23.8506 21.7888 23.9675 21.6925 24.0637C21.61 24.1462 21.4931 24.1875 21.3419 24.1875H20.3519Z" fill="url(#gradient0)"/>
<path d="M8.085 23.7956L7.90294 24.1658L7.90789 24.1682L8.085 23.7956ZM6.14625 21.9187L5.78211 22.1126L5.78344 22.115L6.14625 21.9187ZM5.38313 18.7219L4.97065 18.7312L4.97101 18.7396L5.38313 18.7219ZM5.38313 15.2362L4.97093 15.2183L4.97073 15.2269L5.38313 15.2362ZM6.16688 12.0806L5.80765 11.8778L5.80656 11.8798L6.16688 12.0806ZM8.14688 10.1831L8.32892 10.5533L8.33135 10.5521L8.14688 10.1831ZM14.0456 10.1831L13.8587 10.5509L13.866 10.5544L14.0456 10.1831ZM16.0463 12.0806L15.687 12.2834L15.6885 12.2859L16.0463 12.0806ZM16.83 15.2362L16.4177 15.2497L16.4179 15.255L16.83 15.2362ZM16.83 18.7219L16.4179 18.7031L16.4177 18.7086L16.83 18.7219ZM16.0669 21.9187L15.7052 21.7204L15.7041 21.7225L16.0669 21.9187ZM14.1281 23.7956L14.3053 24.1682L14.3102 24.1658L14.1281 23.7956ZM13.6744 21.6919L13.392 21.3911L13.389 21.3941L13.6744 21.6919ZM14.7675 18.6187L14.3554 18.6004L14.3553 18.6027L14.7675 18.6187ZM14.7675 15.3187L14.3551 15.3307L14.3554 15.3375L14.7675 15.3187ZM14.2312 13.0087L13.8675 13.2033L13.8711 13.2098L14.2312 13.0087ZM12.9525 11.7094L13.1407 11.3423L12.9525 11.7094ZM9.28125 11.7094L9.09302 11.3423L9.28125 11.7094ZM7.98188 13.0087L7.62162 12.8077L7.61814 12.8142L7.98188 13.0087ZM7.44563 15.3187L7.03343 15.3008L7.03323 15.3094L7.44563 15.3187ZM7.44563 18.6187L7.03317 18.6279L7.03344 18.6348L7.44563 18.6187ZM8.53875 21.6919L8.82108 21.3911L8.53875 21.6919ZM11.0963 23.9813C9.97339 23.9813 9.03313 23.7896 8.26211 23.4231L7.90789 24.1682C8.81437 24.5991 9.88161 24.8062 11.0963 24.8062V23.9813ZM8.26704 23.4255C7.50679 23.0516 6.92295 22.4875 6.50906 21.7225L5.78344 22.115C6.27705 23.0275 6.98571 23.7147 7.90296 24.1658L8.26704 23.4255ZM6.51038 21.7249C6.09339 20.9415 5.84842 19.9405 5.79524 18.7041L4.97101 18.7396C5.02783 20.0608 5.29161 21.191 5.78212 22.1126L6.51038 21.7249ZM5.79552 18.7125C5.78183 18.1103 5.775 17.536 5.775 16.9894H4.95C4.95 17.5428 4.95692 18.1234 4.97073 18.7312L5.79552 18.7125ZM5.775 16.9894C5.775 16.429 5.78183 15.8477 5.79552 15.2456L4.97073 15.2269C4.95692 15.8348 4.95 16.4223 4.95 16.9894H5.775ZM5.79524 15.2542C5.8483 14.0337 6.09929 13.0491 6.52719 12.2815L5.80656 11.8798C5.29946 12.7896 5.02795 13.9088 4.97101 15.2183L5.79524 15.2542ZM6.52609 12.2834C6.96854 11.4996 7.56839 10.9273 8.32892 10.5533L7.96483 9.81297C7.04786 10.2639 6.32771 10.9566 5.80766 11.8778L6.52609 12.2834ZM8.33135 10.5521C9.11766 10.1589 10.0358 9.95625 11.0963 9.95625V9.13125C9.92923 9.13125 8.88109 9.35483 7.9624 9.81417L8.33135 10.5521ZM11.0963 9.95625C12.1716 9.95625 13.0883 10.1593 13.8587 10.5509L14.2325 9.81539C13.3255 9.35442 12.2759 9.13125 11.0963 9.13125V9.95625ZM13.866 10.5544C14.6402 10.9291 15.2456 11.5014 15.687 12.2834L16.4055 11.8778C15.8844 10.9548 15.1561 10.2622 14.2253 9.81181L13.866 10.5544ZM15.6885 12.2859C16.1274 13.0509 16.378 14.032 16.4177 15.2497L17.2423 15.2228C17.1995 13.9105 16.9276 12.7879 16.404 11.8753L15.6885 12.2859ZM16.4179 15.255C16.4452 15.8542 16.4588 16.4323 16.4588 16.9894H17.2838C17.2838 16.4189 17.2698 15.8283 17.2421 15.2175L16.4179 15.255ZM16.4588 16.9894C16.4588 17.5325 16.4452 18.1038 16.4179 18.7031L17.2421 18.7406C17.2698 18.13 17.2838 17.5462 17.2838 16.9894H16.4588ZM16.4177 18.7086C16.3779 19.9422 16.1333 20.9398 15.7052 21.7204L16.4286 22.1171C16.9355 21.1927 17.1996 20.059 17.2423 18.7352L16.4177 18.7086ZM15.7041 21.7225C15.2902 22.4875 14.7063 23.0516 13.9461 23.4255L14.3102 24.1658C15.2274 23.7147 15.9361 23.0275 16.4297 22.115L15.7041 21.7225ZM13.951 23.4231C13.1806 23.7894 12.2337 23.9813 11.0963 23.9813V24.8062C12.3238 24.8062 13.3982 24.5994 14.3052 24.1682L13.951 23.4231ZM11.0963 23.0531C12.2433 23.0531 13.2109 22.7074 13.9598 21.9897L13.389 21.3941C12.8179 21.9413 12.0667 22.2281 11.0963 22.2281V23.0531ZM13.9567 21.9926C14.7428 21.2546 15.1227 20.1028 15.1797 18.6348L14.3553 18.6027C14.3023 19.9672 13.9534 20.8641 13.392 21.3911L13.9567 21.9926ZM15.1796 18.6371C15.2073 18.0138 15.2213 17.4575 15.2213 16.9687H14.3962C14.3962 17.4425 14.3827 17.9862 14.3554 18.6004L15.1796 18.6371ZM15.2213 16.9687C15.2213 16.4663 15.2073 15.9099 15.1796 15.3L14.3554 15.3375C14.3827 15.9376 14.3962 16.4812 14.3962 16.9687H15.2213ZM15.1798 15.3068C15.1511 14.3168 14.9641 13.4754 14.5914 12.8077L13.8711 13.2098C14.1584 13.7246 14.3289 14.4232 14.3552 15.3307L15.1798 15.3068ZM14.595 12.8142C14.2438 12.1576 13.76 11.6599 13.1407 11.3423L12.7643 12.0764C13.2175 12.3089 13.5862 12.6774 13.8675 13.2033L14.595 12.8142ZM13.1407 11.3423C12.5374 11.0329 11.8522 10.8844 11.0963 10.8844V11.7094C11.7428 11.7094 12.2951 11.8358 12.7643 12.0764L13.1407 11.3423ZM11.0963 10.8844C10.3649 10.8844 9.6941 11.0341 9.09302 11.3423L9.46948 12.0764C9.9409 11.8347 10.4801 11.7094 11.0963 11.7094V10.8844ZM9.09302 11.3423C8.47558 11.659 7.98629 12.1545 7.62168 12.8077L8.34207 13.2098C8.63746 12.6805 9.01442 12.3098 9.46948 12.0764L9.09302 11.3423ZM7.61814 12.8142C7.2632 13.4778 7.07641 14.3143 7.03351 15.3008L7.85774 15.3367C7.89734 14.4257 8.06805 13.7222 8.34561 13.2033L7.61814 12.8142ZM7.03323 15.3094C7.01943 15.9168 7.0125 16.47 7.0125 16.9687H7.8375C7.8375 16.4775 7.84432 15.9307 7.85802 15.3281L7.03323 15.3094ZM7.0125 16.9687C7.0125 17.4538 7.01943 18.0069 7.03323 18.6279L7.85802 18.6096C7.84432 17.9931 7.8375 17.4462 7.8375 16.9687H7.0125ZM7.03344 18.6348C7.09045 20.1028 7.4703 21.2546 8.25642 21.9926L8.82108 21.3911C8.2597 20.8641 7.9108 19.9672 7.85781 18.6027L7.03344 18.6348ZM8.25642 21.9926C9.01574 22.7055 9.97328 23.0531 11.0963 23.0531V22.2281C10.1567 22.2281 9.40926 21.9433 8.82108 21.3911L8.25642 21.9926ZM20.0013 24.0637L19.6881 24.3322L19.6984 24.3442L19.7096 24.3554L20.0013 24.0637ZM20.0013 9.89437L20.2929 10.1861L20.3041 10.1749L20.3144 10.1628L20.0013 9.89437ZM21.6719 9.87375L21.3802 10.1654L21.3934 10.1787L21.4078 10.1906L21.6719 9.87375ZM21.8163 10.0387L21.4249 10.1692L21.4417 10.2194L21.4706 10.2638L21.8163 10.0387ZM28.6638 20.5575L28.3181 20.7825L29.0763 21.9473V20.5575H28.6638ZM28.7875 9.89437L29.0792 10.1861L29.0904 10.1749L29.1007 10.1628L28.7875 9.89437ZM30.4788 9.89437L30.1656 10.1628L30.1862 10.1869L30.2103 10.2076L30.4788 9.89437ZM30.4788 24.0431L30.1871 23.7514L30.1759 23.7626L30.1656 23.7747L30.4788 24.0431ZM28.8081 24.0637L28.4912 24.3278L28.5032 24.3422L28.5164 24.3554L28.8081 24.0637ZM28.6638 23.8988L28.3188 24.1249L28.342 24.1604L28.3721 24.1904L28.6638 23.8988ZM21.8369 13.4831L22.1819 13.257L21.4244 12.1013V13.4831H21.8369ZM21.6925 24.0637L21.4008 23.7721L21.6925 24.0637ZM20.3519 23.775C20.3131 23.775 20.2939 23.7696 20.2881 23.7676C20.284 23.7661 20.2879 23.7671 20.2929 23.7721L19.7096 24.3554C19.8905 24.5363 20.1251 24.6 20.3519 24.6V23.775ZM20.3144 23.7953C20.3016 23.7804 20.29 23.7611 20.29 23.7131H19.465C19.465 23.9401 19.5359 24.1546 19.6881 24.3322L20.3144 23.7953ZM20.29 23.7131V10.245H19.465V23.7131H20.29ZM20.29 10.245C20.29 10.2062 20.2954 10.187 20.2974 10.1812C20.2989 10.1771 20.2979 10.1811 20.2929 10.1861L19.7096 9.60269C19.5287 9.78357 19.465 10.0182 19.465 10.245H20.29ZM20.3144 10.1628C20.3146 10.1626 20.3136 10.1638 20.3115 10.1653C20.3106 10.166 20.3097 10.1666 20.3089 10.167C20.3081 10.1674 20.3078 10.1676 20.3078 10.1675C20.308 10.1675 20.3109 10.1663 20.3178 10.165C20.3248 10.1638 20.3359 10.1625 20.3519 10.1625V9.3375C20.1058 9.3375 19.8642 9.42046 19.6881 9.62592L20.3144 10.1628ZM20.3519 10.1625H21.3006V9.3375H20.3519V10.1625ZM21.3006 10.1625C21.35 10.1625 21.3764 10.1688 21.3867 10.1723C21.3951 10.1751 21.3893 10.1746 21.3802 10.1654L21.9636 9.58207C21.7764 9.39493 21.5292 9.3375 21.3006 9.3375V10.1625ZM21.4078 10.1906C21.4229 10.2033 21.4347 10.2138 21.4436 10.2222C21.4526 10.2307 21.4575 10.236 21.4594 10.2382C21.4615 10.2406 21.4583 10.2373 21.4525 10.2283C21.4495 10.2236 21.4452 10.2165 21.4405 10.2071C21.4359 10.1978 21.4302 10.185 21.4249 10.1692L22.2076 9.9083C22.1755 9.812 22.1192 9.73938 22.0803 9.69493C22.0371 9.64552 21.9869 9.59929 21.936 9.55686L21.4078 10.1906ZM21.4706 10.2638L28.3181 20.7825L29.0095 20.3325L22.162 9.8137L21.4706 10.2638ZM29.0763 20.5575V10.245H28.2513V20.5575H29.0763ZM29.0763 10.245C29.0763 10.2062 29.0816 10.187 29.0837 10.1812C29.0851 10.1771 29.0842 10.1811 29.0792 10.1861L28.4958 9.60269C28.3149 9.78357 28.2513 10.0182 28.2513 10.245H29.0763ZM29.1007 10.1628C29.1009 10.1626 29.0999 10.1638 29.0978 10.1653C29.0968 10.166 29.0959 10.1666 29.0951 10.167C29.0944 10.1674 29.094 10.1676 29.0941 10.1675C29.0942 10.1675 29.0971 10.1663 29.104 10.165C29.111 10.1638 29.1221 10.1625 29.1381 10.1625V9.3375C28.892 9.3375 28.6504 9.42046 28.4743 9.62592L29.1007 10.1628ZM29.1381 10.1625H30.1281V9.3375H29.1381V10.1625ZM30.1281 10.1625C30.1441 10.1625 30.1553 10.1638 30.1622 10.165C30.1691 10.1663 30.1721 10.1675 30.1722 10.1675C30.1723 10.1676 30.1719 10.1674 30.1711 10.167C30.1704 10.1666 30.1695 10.166 30.1685 10.1653C30.1664 10.1638 30.1654 10.1626 30.1656 10.1628L30.792 9.62592C30.6158 9.42046 30.3742 9.3375 30.1281 9.3375V10.1625ZM30.2103 10.2076C30.2105 10.2077 30.2093 10.2067 30.2078 10.2046C30.2071 10.2037 30.2066 10.2028 30.2061 10.202C30.2057 10.2013 30.2056 10.2009 30.2056 10.201C30.2057 10.2011 30.2069 10.204 30.2081 10.2109C30.2094 10.2179 30.2106 10.229 30.2106 10.245H31.0356C31.0356 9.99891 30.9527 9.75729 30.7472 9.58118L30.2103 10.2076ZM30.2106 10.245V23.6925H31.0356V10.245H30.2106ZM30.2106 23.6925C30.2106 23.7218 30.2051 23.7334 30.1871 23.7514L30.7704 24.3348C30.9449 24.1603 31.0356 23.9382 31.0356 23.6925H30.2106ZM30.1656 23.7747C30.1635 23.7771 30.163 23.7772 30.1642 23.7763C30.1656 23.7753 30.1673 23.7742 30.169 23.7735C30.1707 23.7728 30.1706 23.773 30.168 23.7736C30.1652 23.7741 30.1591 23.775 30.1488 23.775V24.6C30.3951 24.6 30.6239 24.5077 30.7919 24.3116L30.1656 23.7747ZM30.1488 23.775H29.1588V24.6H30.1488V23.775ZM29.1588 23.775C29.1199 23.775 29.1008 23.7696 29.0949 23.7676C29.0909 23.7661 29.0948 23.7671 29.0998 23.7721L28.5164 24.3554C28.6973 24.5363 28.9319 24.6 29.1588 24.6V23.775ZM29.125 23.7997C29.0575 23.7187 28.9981 23.6497 28.9554 23.6071L28.3721 24.1904C28.3844 24.2028 28.4212 24.2438 28.4912 24.3278L29.125 23.7997ZM29.0088 23.6726L22.1819 13.257L21.4919 13.7093L28.3188 24.1249L29.0088 23.6726ZM21.4244 13.4831V23.7131H22.2494V13.4831H21.4244ZM21.4244 23.7131C21.4244 23.7425 21.4188 23.7541 21.4008 23.7721L21.9842 24.3554C22.1587 24.1809 22.2494 23.9588 22.2494 23.7131H21.4244ZM21.4008 23.7721C21.4058 23.7671 21.4097 23.7661 21.4057 23.7676C21.3998 23.7696 21.3807 23.775 21.3419 23.775V24.6C21.5687 24.6 21.8033 24.5363 21.9842 24.3554L21.4008 23.7721ZM21.3419 23.775H20.3519V24.6H21.3419V23.775Z" fill="url(#gradient1)"/>
<rect x="37.125" y="4.125" width="24.75" height="24.75" rx="12.375" fill="url(#gradient2)"/>
<rect x="0.825" y="0.825" width="64.35" height="31.35" rx="15.675" stroke="url(#gradient3)" stroke-width="1.65"/>
<defs>
    <linearGradient id="gradient0" x1="-2.44167" y1="16.7271" x2="39.9917" y2="16.7271" gradientUnits="userSpaceOnUse">
        <stop class="svg-gradient-color-1" stop-color="#FFA66C"/>
        <stop class="svg-gradient-color-2" stop-color="#FF7A83" offset="1"/>
    </linearGradient>
    <linearGradient id="gradient1" x1="-2.44167" y1="16.7271" x2="39.9917" y2="16.7271" gradientUnits="userSpaceOnUse">
        <stop class="svg-gradient-color-1" stop-color="#FFA66C"/>
        <stop class="svg-gradient-color-2" stop-color="#FF7A83" offset="1"/>
    </linearGradient>
    <linearGradient id="gradient2" x1="31.5207" y1="16.5467" x2="67.7353" y2="16.5467" gradientUnits="userSpaceOnUse">
        <stop class="svg-gradient-color-1" stop-color="#FFA66C"/>
        <stop class="svg-gradient-color-2" stop-color="#FF7A83" offset="1"/>
    </linearGradient>
    <linearGradient id="gradient3" x1="-14.9448" y1="16.5623" x2="81.6276" y2="16.5623" gradientUnits="userSpaceOnUse">
        <stop class="svg-gradient-color-1" stop-color="#FFA66C"/>
        <stop class="svg-gradient-color-2" stop-color="#FF7A83" offset="1"/>
    </linearGradient>
</defs>
</svg>
